<?xml version="1.0" standalone="no"?>
<!DOCTYPE svg PUBLIC "-//W3C//DTD SVG 20010904//EN"
 "http://www.w3.org/TR/2001/REC-SVG-20010904/DTD/svg10.dtd">
<svg version="1.0" xmlns="http://www.w3.org/2000/svg"
 width="800.000000pt" height="800.000000pt" viewBox="0 0 800.000000 800.000000"
 preserveAspectRatio="xMidYMid meet">
<metadata>
Created by potrace 1.14, written by Peter Selinger 2001-2017
</metadata>
<g transform="translate(0.000000,800.000000) scale(0.100000,-0.100000)"
fill="#000000" stroke="none">
<path d="M3788 7955 c-2 -1 -46 -6 -98 -9 -52 -4 -108 -9 -125 -11 -16 -2 -55
-7 -85 -10 -30 -3 -67 -8 -82 -10 -16 -3 -43 -7 -60 -10 -18 -3 -40 -8 -48
-10 -8 -2 -33 -7 -55 -10 -22 -3 -110 -23 -195 -45 -85 -22 -162 -42 -171 -44
-9 -3 -63 -20 -120 -39 -755 -253 -1393 -709 -1891 -1349 -81 -104 -258 -368
-258 -384 0 -7 -4 -14 -9 -16 -4 -1 -26 -37 -48 -78 -23 -41 -54 -100 -71
-131 -75 -140 -189 -421 -246 -604 -58 -188 -65 -208 -70 -240 -3 -17 -8 -39
-11 -50 -14 -58 -34 -155 -39 -190 -4 -23 -8 -50 -10 -62 -17 -84 -30 -191
-43 -338 -14 -167 -7 -655 11 -750 2 -11 7 -47 10 -80 7 -62 15 -112 22 -149
2 -11 9 -48 14 -81 6 -33 15 -73 20 -90 5 -16 11 -46 14 -65 14 -93 118 -420
192 -602 42 -103 184 -399 204 -423 4 -5 22 -36 39 -68 26 -48 102 -166 198
-307 22 -32 116 -153 124 -160 3 -3 10 -12 15 -21 34 -62 290 -331 445 -469
46 -41 95 -85 109 -97 14 -13 27 -23 31 -23 3 0 21 -14 40 -31 62 -56 397
-289 416 -289 4 0 14 -6 22 -14 42 -36 417 -224 524 -262 20 -7 52 -20 70 -28
135 -63 572 -182 772 -211 23 -3 52 -7 65 -10 13 -2 46 -7 74 -11 28 -3 62 -7
76 -9 193 -26 742 -26 880 0 8 1 40 6 70 9 30 4 66 8 80 11 14 2 43 6 65 10
22 3 47 7 55 10 8 2 31 6 50 9 114 13 489 123 685 199 120 47 363 159 425 197
8 5 53 30 100 56 125 69 433 277 480 324 3 3 28 23 55 45 28 22 55 44 61 50 7
5 41 36 78 68 89 79 206 196 296 296 41 46 80 89 85 95 93 102 375 503 375
534 0 6 4 12 8 14 22 9 182 327 259 513 94 229 199 588 227 781 4 22 8 51 11
64 3 13 7 42 10 65 4 22 8 54 11 71 6 42 12 92 21 199 14 170 8 655 -11 750
-2 11 -7 47 -10 80 -7 58 -9 75 -21 148 -110 654 -410 1317 -823 1822 -86 105
-88 107 -170 195 -159 171 -271 276 -432 406 -127 102 -341 254 -358 254 -6 0
-12 4 -14 8 -12 29 -458 261 -618 322 -30 11 -64 25 -75 30 -26 12 -240 83
-330 109 -181 53 -469 108 -655 126 -36 3 -81 9 -100 11 -38 6 -537 14 -542 9z
m982 -261 c976 -111 1597 -612 1671 -1350 19 -179 -8 -392 -72 -588 -38 -115
-131 -309 -200 -417 -162 -256 -333 -432 -609 -629 -121 -86 -120 -83 -35
-110 63 -20 174 -78 243 -127 127 -90 226 -250 278 -448 22 -84 27 -129 31
-277 3 -102 1 -226 -6 -295 -15 -151 -75 -444 -151 -743 -256 -1002 -279
-1108 -287 -1315 -7 -166 10 -270 61 -380 57 -122 152 -226 250 -275 47 -23
57 -19 -156 -70 -681 -164 -1099 -134 -1304 93 -146 162 -175 417 -93 822 36
181 154 646 242 955 221 771 260 1214 131 1477 -88 180 -284 274 -544 258
-114 -6 -236 -27 -249 -41 -5 -5 -169 -767 -366 -1694 -196 -927 -363 -1715
-371 -1753 l-16 -67 -670 0 -670 0 5 23 c3 12 287 1340 632 2952 344 1612 628
2937 630 2945 4 12 135 33 657 104 359 49 669 91 689 93 l36 5 -228 -1073
c-226 -1065 -230 -1089 -194 -1089 61 0 246 24 305 40 570 157 1060 889 1060
1586 0 505 -256 849 -713 957 -82 19 -121 21 -357 22 -268 0 -365 -8 -582 -45
-398 -70 -745 -210 -1038 -418 -443 -315 -731 -791 -824 -1362 -29 -174 -41
-451 -28 -611 15 -176 30 -242 82 -357 22 -49 40 -93 40 -97 0 -11 -208 3
-310 21 -110 19 -248 66 -330 111 -76 42 -194 157 -233 228 -36 63 -80 191
-98 280 -9 46 -14 135 -13 260 0 156 4 207 22 288 78 353 251 653 567 985 550
577 1388 998 2222 1117 255 36 618 40 893 9z"/>
</g>
</svg>
