<?xml version="1.0" standalone="no"?>
<!DOCTYPE svg PUBLIC "-//W3C//DTD SVG 20010904//EN"
 "http://www.w3.org/TR/2001/REC-SVG-20010904/DTD/svg10.dtd">
<svg version="1.0" xmlns="http://www.w3.org/2000/svg"
 width="1111.000000pt" height="1280.000000pt" viewBox="0 0 1111.000000 1280.000000"
 preserveAspectRatio="xMidYMid meet">

<g transform="translate(0.000000,1280.000000) scale(0.100000,-0.100000)"
fill="current" stroke="current">
<path d="M5305 12685 c-148 -51 -702 -242 -1230 -423 -1786 -614 -2790 -960
-2860 -984 l-70 -25 -3 -1310 -2 -1310 -383 -146 -382 -145 -3 -209 c-5 -324
25 -669 94 -1097 20 -120 32 -222 27 -226 -4 -4 -87 -20 -183 -35 -96 -15
-201 -31 -233 -37 l-57 -10 0 -759 c0 -716 1 -759 18 -759 9 0 100 13 202 30
219 34 622 90 655 90 20 0 28 -13 60 -97 547 -1423 1298 -2517 2465 -3592 331
-305 948 -813 1291 -1062 231 -168 587 -396 810 -517 l75 -41 140 78 c1249
699 2596 1973 3592 3396 205 292 623 1116 849 1675 31 74 57 136 58 138 4 5
319 -40 599 -84 121 -18 227 -34 238 -34 17 0 18 29 18 774 l0 774 -77 11
c-43 6 -136 18 -208 27 -71 9 -133 19 -136 23 -3 3 11 125 33 271 59 412 88
702 95 946 3 121 3 241 -1 265 l-7 45 -382 166 -382 167 -3 1289 -2 1290 -58
20 c-31 11 -608 211 -1282 445 -674 234 -1389 482 -1590 552 -201 70 -475 165
-610 212 -135 46 -393 136 -573 199 -181 63 -329 114 -330 113 -1 0 -123 -42
-272 -94z m1052 -689 c434 -145 1322 -443 1975 -663 l1188 -398 0 -2007 0
-2008 -22 0 c-13 0 -63 5 -113 10 -196 20 -1161 97 -1335 106 -36 1 -110 6
-165 9 -133 9 -183 11 -575 30 -1575 72 -2936 69 -4290 -11 -424 -25 -1145
-83 -1353 -110 l-47 -6 2 1983 3 1983 1850 630 c1018 347 1904 650 1970 673
66 23 121 42 122 42 2 1 357 -118 790 -263z m3948 -4013 l15 -33 194 0 c107 0
197 -3 200 -8 2 -4 -67 -65 -154 -135 l-158 -127 59 -192 c33 -106 58 -197 56
-201 -1 -4 -79 45 -173 109 l-172 116 -173 -120 c-96 -66 -175 -119 -177 -117
-2 2 22 90 53 195 31 106 54 198 52 204 -3 7 -75 66 -160 131 -85 66 -153 123
-150 128 2 4 46 7 96 7 51 0 142 3 202 6 l111 7 69 195 68 195 64 -164 c34
-90 70 -179 78 -196z m-9296 310 c8 -21 41 -107 73 -190 l60 -153 199 0 c114
0 199 -4 199 -9 0 -7 -245 -211 -308 -257 -2 -1 23 -92 56 -201 34 -108 59
-199 57 -201 -2 -2 -80 49 -174 113 -106 72 -176 113 -184 109 -6 -4 -75 -51
-152 -104 -77 -53 -152 -104 -167 -114 l-26 -17 59 203 c32 111 59 203 59 204
0 1 -72 57 -160 125 -102 78 -156 125 -148 130 7 3 98 9 203 13 104 4 193 10
196 14 3 4 35 89 70 190 35 100 66 182 69 182 3 0 12 -17 19 -37z m3559 -1441
c-1 -4 -83 -107 -180 -229 -98 -122 -178 -225 -178 -229 0 -4 90 -119 201
-256 111 -137 198 -252 195 -256 -4 -3 -73 -7 -154 -9 l-147 -3 -149 191 -150
191 -28 -33 -29 -34 6 -161 5 -161 -126 -7 c-69 -4 -127 -6 -129 -4 -2 3 -25
843 -25 931 l0 57 125 0 125 0 1 -47 c1 -27 4 -126 8 -221 l6 -173 167 225
167 225 78 4 c165 7 215 7 211 -1z m982 -87 l0 -95 -230 0 -230 0 0 -85 0 -85
215 0 215 0 0 -95 0 -95 -215 0 -215 0 0 -120 0 -120 228 -2 227 -3 3 -92 3
-93 -356 0 -355 0 0 490 0 490 355 0 355 0 0 -95z m650 80 c179 -3 351 -8 383
-11 l57 -6 0 -94 0 -94 -154 7 -153 6 -7 -289 c-3 -159 -9 -337 -12 -396 l-6
-108 -112 0 c-61 0 -117 4 -125 9 -11 7 -12 54 -7 267 3 143 9 319 12 392 l6
132 -150 0 c-96 0 -153 4 -157 11 -4 6 -4 51 0 100 l7 91 47 -6 c25 -3 192 -8
371 -11z m-2993 -40 c148 -24 139 -16 147 -140 4 -61 4 -111 -2 -117 -5 -5
-27 2 -54 17 -148 82 -334 96 -430 32 -34 -23 -44 -51 -34 -92 8 -31 60 -50
215 -75 212 -36 294 -76 344 -170 36 -70 38 -171 3 -245 -26 -56 -93 -123
-156 -155 -140 -71 -408 -82 -591 -24 -42 13 -47 18 -53 52 -8 49 -8 202 0
202 4 0 42 -18 85 -39 146 -74 330 -91 428 -42 41 22 51 37 51 80 0 52 -44 76
-182 96 -292 44 -392 113 -406 282 -7 87 12 144 66 204 115 129 314 175 569
134z m3948 5 c239 -14 325 -25 384 -51 92 -40 131 -99 131 -194 0 -94 -37
-157 -115 -198 l-40 -20 40 -14 c55 -18 111 -66 137 -116 49 -96 14 -249 -72
-317 -75 -59 -123 -74 -257 -78 -110 -4 -492 13 -500 22 -2 2 8 214 22 471 14
257 25 476 25 486 0 23 -8 22 245 9z m1441 -103 c8 -7 286 -998 282 -1001 -2
-1 -60 2 -131 7 l-127 10 -10 36 c-5 20 -16 66 -26 104 -15 61 -19 67 -43 68
-14 0 -95 6 -180 12 l-154 13 -25 -56 c-13 -30 -32 -73 -42 -95 l-17 -40 -124
9 c-68 5 -125 10 -127 11 -2 2 78 180 179 397 100 216 199 429 219 473 l37 81
141 -12 c78 -6 145 -14 148 -17z m-6399 -451 c123 -258 223 -470 221 -471 -9
-9 -250 -27 -257 -19 -4 5 -25 48 -46 96 l-38 87 -56 -5 c-31 -3 -112 -11
-181 -17 l-125 -12 -24 -101 -24 -102 -56 -6 c-31 -3 -89 -8 -130 -12 l-73 -7
7 23 c4 13 65 239 135 502 71 264 130 482 133 484 5 5 266 33 281 30 5 -1 110
-213 233 -470z m7172 384 c51 -5 95 -11 96 -12 2 -2 -16 -177 -38 -390 -23
-213 -39 -389 -36 -392 2 -2 101 -14 219 -26 118 -12 218 -25 221 -29 7 -6 -9
-172 -17 -180 -4 -5 -694 66 -699 71 -3 4 95 948 100 965 3 8 15 11 32 8 15
-3 70 -9 122 -15z m-8394 -85 c64 -40 95 -97 95 -177 0 -75 -17 -115 -71 -167
-42 -40 -42 -41 -17 -41 36 0 101 -25 138 -51 91 -68 108 -238 34 -348 -35
-51 -119 -109 -193 -131 -59 -18 -541 -93 -548 -86 -7 6 -141 961 -137 966 3
3 101 19 217 37 156 23 241 31 323 30 104 -2 114 -4 159 -32z m9335 -20 c62
-8 115 -17 118 -19 2 -3 -18 -177 -45 -388 -27 -211 -47 -386 -44 -390 3 -3
103 -18 221 -33 118 -15 217 -29 219 -31 6 -5 -15 -174 -22 -181 -8 -7 -679
78 -691 88 -4 4 15 189 43 411 65 510 72 558 80 558 4 0 58 -7 121 -15z
m-6100 -1107 c0 -90 3 -268 7 -395 l6 -233 63 0 62 0 6 -37 c23 -157 50 -306
71 -389 13 -55 22 -100 21 -101 -2 -2 -30 54 -64 124 -101 212 -180 421 -228
608 -35 136 -80 331 -89 383 -4 23 -10 42 -14 42 -24 0 -172 -308 -230 -477
-37 -109 -101 -354 -101 -388 0 -13 -4 -26 -9 -29 -5 -4 -43 27 -84 68 l-74
75 -17 -88 c-40 -210 -49 -312 -49 -586 0 -280 5 -330 52 -544 43 -191 123
-428 194 -567 24 -47 32 -54 137 -108 62 -32 108 -61 103 -65 -4 -4 -30 -16
-58 -26 -27 -10 -54 -21 -58 -25 -13 -11 130 -187 244 -300 405 -402 923 -620
1466 -620 519 0 1025 207 1417 578 124 117 279 296 288 331 2 7 -23 22 -57 35
-33 13 -58 27 -56 32 2 5 52 34 110 65 l105 56 47 105 c219 486 280 1057 173
1631 -9 48 -19 87 -23 87 -4 0 -37 -34 -74 -75 -38 -41 -72 -75 -76 -75 -4 0
-19 57 -35 128 -33 153 -92 339 -153 482 -45 106 -143 290 -154 290 -3 0 -11
-33 -18 -72 -17 -98 -83 -352 -120 -463 l-30 -90 -1 398 0 397 43 0 c129 0
840 -40 1267 -71 454 -32 1274 -110 1285 -121 5 -6 -160 -410 -244 -593 -332
-727 -740 -1383 -1183 -1900 -121 -142 -408 -430 -528 -532 -522 -438 -1040
-683 -1620 -765 -126 -17 -553 -17 -680 1 -494 69 -931 239 -1355 529 -756
516 -1442 1413 -1965 2567 -118 261 -290 699 -278 710 11 11 808 81 1308 114
310 21 761 43 1208 59 l42 2 0 -162z m1460 -93 l0 -145 35 0 c32 0 35 -2 35
-30 l0 -30 -109 0 c-90 0 -110 3 -115 16 -13 33 -6 43 32 46 l37 3 3 88 3 87
-41 0 c-38 0 -40 2 -40 30 0 26 4 30 26 30 15 0 35 10 47 25 15 17 33 25 55
25 l32 0 0 -145z m383 107 c31 -32 32 -35 32 -121 0 -75 -3 -94 -21 -117 -40
-54 -70 -68 -150 -72 l-74 -4 0 36 0 36 40 -6 c45 -7 96 9 110 37 15 27 13 28
-40 22 -88 -10 -136 28 -134 106 2 81 56 124 147 118 49 -3 63 -8 90 -35z
m318 12 c36 -18 59 -71 58 -136 -2 -127 -70 -198 -191 -198 -49 0 -68 8 -68
30 0 41 9 49 46 38 43 -11 103 14 116 51 7 20 6 22 -9 15 -10 -5 -39 -9 -65
-9 -81 0 -125 68 -98 150 24 73 126 102 211 59z m-1093 -21 l3 -33 -57 0 -57
0 8 -140 7 -140 -46 0 -46 0 0 48 c0 27 -3 90 -7 141 l-6 91 -51 -2 c-51 -3
-51 -3 -54 29 l-3 32 83 4 c46 2 115 3 153 3 l70 -1 3 -32z m-358 12 c9 -6 15
-85 7 -85 -2 0 -18 7 -35 16 -20 9 -51 14 -84 12 -46 -3 -53 -6 -56 -26 -4
-25 -1 -26 82 -43 96 -18 136 -74 104 -144 -26 -57 -132 -88 -227 -65 l-51 12
0 44 0 44 41 -20 c51 -26 136 -25 153 3 13 22 -2 34 -54 42 -79 14 -121 36
-137 73 -8 19 -12 46 -8 59 8 32 50 71 89 83 32 10 158 6 176 -5z m1828 -27
l3 -37 -37 10 c-44 13 -77 6 -104 -21 -31 -31 -25 -40 25 -33 81 11 135 -32
135 -107 0 -73 -53 -120 -135 -120 -96 0 -140 51 -139 160 0 69 16 110 56 147
35 33 67 42 133 40 l60 -2 3 -37z m-2158 -13 l0 -35 -57 0 c-82 0 -103 -8
-103 -36 0 -23 3 -24 74 -24 71 0 74 -1 80 -26 4 -15 5 -28 3 -31 -3 -2 -37
-7 -76 -10 l-72 -6 3 -36 3 -36 80 -1 80 -1 3 -31 3 -30 -68 -6 c-37 -4 -94
-9 -125 -12 -54 -5 -58 -4 -58 17 0 11 -5 86 -11 166 -6 79 -8 147 -4 151 6 7
106 17 203 20 42 2 42 2 42 -33z m-497 -590 c82 -263 176 -464 339 -727 126
-204 361 -504 484 -618 l37 -35 -20 35 c-70 118 -91 157 -148 270 -156 311
-278 704 -311 999 -8 73 -2 81 63 81 46 0 46 2 58 -115 11 -105 55 -315 90
-430 54 -177 247 -621 350 -805 30 -53 95 -150 145 -215 137 -178 188 -276
205 -387 8 -51 18 -58 90 -58 l41 0 -4 1020 -4 1020 57 0 58 0 -6 -1020 -7
-1020 42 0 c77 0 85 6 92 63 14 102 80 225 202 378 29 36 74 99 100 139 88
137 319 640 383 838 49 150 111 455 111 550 0 32 1 32 48 32 74 0 77 -4 63
-101 -61 -417 -205 -811 -459 -1249 -24 -42 144 138 235 250 350 436 591 922
669 1352 l17 91 19 -37 c65 -127 138 -426 161 -658 l12 -127 42 21 c24 12 69
43 100 69 39 32 61 44 68 38 15 -15 13 -564 -3 -674 -39 -268 -104 -519 -190
-731 l-47 -117 -120 -61 c-213 -108 -222 -122 -120 -188 35 -24 65 -48 65 -54
0 -17 -189 -212 -282 -291 -399 -339 -912 -515 -1385 -474 -400 35 -750 176
-1082 440 -91 72 -321 305 -321 325 0 8 29 32 65 55 46 28 65 46 65 61 0 25
-75 75 -208 138 l-94 44 -30 67 c-84 186 -172 512 -210 776 -14 96 -19 678 -6
690 4 4 29 -10 55 -32 49 -41 141 -103 153 -103 4 0 10 44 13 99 14 209 72
464 143 636 l38 89 27 -129 c15 -72 39 -166 52 -210z m2803 -39 c9 -24 -196
-509 -210 -495 -3 2 6 49 20 104 13 55 33 158 45 230 11 71 22 140 25 153 4
20 10 22 60 22 37 0 56 -4 60 -14z m-1253 -3536 l72 -185 195 -3 c107 -1 198
-6 202 -10 5 -5 -61 -64 -147 -132 -85 -68 -155 -129 -155 -135 0 -6 25 -94
55 -195 30 -102 54 -188 53 -192 -2 -4 -80 45 -174 108 l-171 116 -174 -120
c-96 -66 -175 -119 -177 -118 -1 2 23 90 53 196 31 106 54 198 51 205 -2 7
-75 67 -160 133 -111 85 -151 122 -140 126 9 3 52 6 97 6 45 0 132 3 194 7
l112 6 67 195 c37 108 69 191 71 186 2 -5 36 -92 76 -194z"/>
<path d="M5360 10393 c-288 -17 -525 -97 -716 -241 -145 -109 -233 -238 -264
-383 -50 -240 -3 -466 131 -622 36 -42 154 -128 229 -167 78 -41 248 -103 344
-125 61 -15 120 -30 132 -35 12 -4 48 -11 80 -15 90 -11 303 -61 354 -83 117
-51 177 -133 167 -223 -8 -63 -30 -101 -84 -140 -59 -42 -133 -66 -244 -80
-318 -39 -693 58 -983 255 -78 53 -105 66 -130 64 l-31 -3 -3 -297 -2 -296 82
-32 c210 -80 420 -130 634 -151 155 -15 479 -6 604 16 259 47 464 146 615 299
134 137 194 279 202 482 14 309 -100 489 -397 633 -136 66 -282 108 -606 176
-162 33 -291 72 -361 109 -63 32 -100 112 -88 188 14 80 122 161 261 194 101
25 329 23 454 -3 162 -35 411 -141 512 -219 46 -36 64 -44 97 -44 l41 0 -2
291 -3 292 -65 24 c-168 63 -436 115 -686 133 -136 10 -160 10 -274 3z"/>
<path d="M1962 9103 l3 -1248 323 -3 322 -2 0 409 0 409 313 5 c344 5 396 12
543 71 146 59 311 181 391 289 108 146 164 325 164 528 0 157 -18 244 -77 367
-98 203 -302 340 -594 398 -73 15 -175 18 -738 21 l-652 4 2 -1248z m933 778
c135 -7 184 -13 238 -31 83 -28 156 -89 195 -164 25 -46 27 -60 26 -156 -1
-125 -23 -193 -85 -263 -83 -95 -202 -126 -481 -127 l-178 0 0 375 0 375 58
-1 c31 0 134 -4 227 -8z"/>
<path d="M7559 10323 c-45 -115 -260 -694 -299 -803 -26 -74 -68 -184 -92
-245 -25 -60 -58 -148 -73 -195 -16 -47 -122 -339 -237 -649 -114 -311 -208
-569 -208 -573 0 -4 144 -8 321 -8 l320 0 12 33 c6 17 46 131 87 252 l76 220
464 0 465 0 86 -250 86 -250 331 -3 c183 -1 332 0 332 2 0 3 -160 438 -356
968 -196 530 -393 1064 -439 1188 -46 124 -93 251 -105 283 l-21 57 -370 0
-369 0 -11 -27z m413 -730 c83 -244 247 -720 257 -745 l11 -28 -305 0 c-168 0
-305 3 -305 8 0 14 295 872 300 872 3 0 22 -48 42 -107z"/>
<path d="M7155 6618 c-2 -7 -5 -55 -7 -106 l-3 -92 97 0 c107 0 140 10 157 47
33 72 -3 137 -80 147 -128 15 -160 16 -164 4z"/>
<path d="M7128 6133 c-3 -65 -4 -120 -2 -122 2 -2 51 -6 108 -9 162 -7 216 22
216 118 0 91 -38 113 -216 125 l-101 7 -5 -119z"/>
<path d="M8353 6296 l-71 -164 97 -7 c53 -3 106 -8 119 -11 12 -2 22 -2 22 2
0 14 -84 330 -89 336 -4 4 -39 -66 -78 -156z"/>
<path d="M1802 6279 c-23 -95 -41 -173 -40 -175 8 -7 228 21 228 29 0 12 -129
299 -139 310 -4 4 -26 -70 -49 -164z"/>
<path d="M607 6390 c-27 -5 -51 -11 -54 -13 -2 -3 1 -49 8 -102 l13 -97 58 6
c85 10 155 34 173 59 31 44 13 126 -32 146 -27 12 -94 13 -166 1z"/>
<path d="M667 6017 c-66 -9 -68 -10 -63 -36 3 -14 10 -68 17 -118 14 -108 3
-102 145 -78 126 22 174 59 174 131 0 42 -27 93 -55 104 -32 12 -125 11 -218
-3z"/>
<path d="M5915 5396 c-17 -26 -13 -64 9 -78 20 -14 74 -9 80 7 3 8 0 32 -7 53
-16 48 -57 57 -82 18z"/>
<path d="M6260 5400 c-41 -41 -11 -105 47 -98 24 3 28 8 31 40 2 27 -3 43 -17
57 -26 26 -36 26 -61 1z"/>
<path d="M6580 5247 c0 -41 25 -77 54 -77 31 0 46 18 46 55 0 41 -16 55 -62
55 -36 0 -38 -1 -38 -33z"/>
<path d="M3970 4570 c0 -152 5 -240 20 -339 11 -74 18 -136 16 -138 -7 -7
-133 45 -177 72 -24 15 -63 43 -86 61 -23 19 -44 31 -46 27 -7 -13 10 -157 27
-221 54 -212 163 -395 351 -591 271 -282 657 -496 1044 -580 160 -35 161 -35
161 -9 0 37 -46 125 -100 193 -27 34 -162 171 -300 305 -284 275 -325 323
-493 574 -194 291 -293 486 -368 728 -18 56 -36 107 -41 113 -4 5 -8 -83 -8
-195z"/>
<path d="M7140 4760 c0 -28 -71 -232 -121 -348 -26 -62 -74 -158 -105 -215
-74 -130 -287 -448 -364 -541 -32 -39 -173 -182 -312 -318 -303 -294 -364
-368 -388 -474 l-8 -35 46 7 c99 14 315 74 428 119 494 195 892 557 1047 950
38 97 67 228 67 306 l0 49 -62 -46 c-71 -52 -155 -97 -212 -112 l-39 -11 7 42
c29 192 36 273 36 432 0 99 -5 187 -10 195 -9 13 -10 13 -10 0z"/>
<path d="M3790 3494 c0 -34 154 -452 173 -471 7 -6 57 -31 112 -56 186 -83
305 -166 305 -212 0 -27 -57 -80 -113 -105 l-40 -18 43 -27 c123 -78 255 -109
460 -109 245 -1 398 41 480 130 36 39 60 80 60 103 0 5 -35 11 -77 15 -191 17
-449 91 -643 184 -244 117 -451 262 -637 448 -68 67 -123 120 -123 118z"/>
<path d="M7252 3410 c-325 -350 -879 -630 -1319 -666 l-82 -7 15 -36 c37 -90
139 -155 294 -187 118 -25 356 -25 462 -1 92 22 185 58 239 94 l38 25 -49 25
c-27 13 -63 40 -80 60 -30 34 -31 36 -14 61 9 14 28 35 43 48 35 31 189 115
285 156 89 38 93 43 153 207 41 114 103 304 100 307 -1 2 -40 -37 -85 -86z"/>
<path d="M5370 2706 c-5 -15 -10 -31 -10 -35 0 -4 -18 -33 -40 -64 -112 -156
-357 -240 -699 -240 -189 0 -187 10 -21 -101 244 -165 537 -270 806 -290 l82
-6 6 152 c3 84 8 253 11 376 l5 222 -34 0 c-18 0 -47 3 -65 6 -27 6 -32 3 -41
-20z"/>
<path d="M5668 2723 l-48 -4 1 -72 c1 -179 17 -668 21 -673 11 -10 225 17 325
41 224 53 504 191 674 330 l27 22 -162 0 c-189 0 -319 19 -446 67 -152 56
-255 144 -295 251 -12 30 -23 44 -34 43 -9 -1 -37 -3 -63 -5z"/>
</g>
</svg>
